# xmcd
#
# Track frame offsets:
#	150
#	14081
#	28167
#	45282
#	61513
#	73216
#	85124
#	97217
#	110475
#	129472
#	142395
#	155395
#	167269
#	179376
#	192488
#	205291
#
# Disc length: 2912 seconds
#
# Revision: 2
# Processed by: cddbd v1.5PL3 Copyright (c) Steve Scherf et al.
# Submitted via: audiograbber 1.83.01
#
DISCID=e40b5e10
DTITLE=Various Artist - The Great Dixieland Bands Disk 2
DYEAR=1900
DGENRE=Dixieland
TTITLE0=George Wettling's Chicago Rhthym Kings  - Bugle Call Rag
TTITLE1=George Wettling's Chicago Rhthym Kings  - Struttin' With Some Barbeque
TTITLE2=Unknown Artist - Somebody Loves Me
TTITLE3=Eddie Condon's Hotshots - I'm Gonna Stomp Mr. Henry Lee
TTITLE4=Muggsy Spanier and His Ragtime Band - At Sundown
TTITLE5=Muggsy Spanier and His Ragtime Band - Mandy, Make Up Your Mind
TTITLE6=Muggsy Spanier and His Ragtime Band - Black and Blue
TTITLE7=Bunk Johnson and His Jazz Band - The Thriller Rag
TTITLE8=Wild Bill Davidson and His Commodores - That's A Plenty
TTITLE9=Wild Bill Davidson and His Commodores - Baby, Won't You Please Come Home
TTITLE10=Jones and Collins Astoria Hot Eight - Duet Stomp
TTITLE11=Original Dixieland Jazz Band - Ostrich Walk
TTITLE12=Original Dixieland Jazz Band - Skeleton Jangle
TTITLE13=Red Nichols and His Five Pennies - Rose Of Washington Square
TTITLE14=Sidney Bechet and His New Orleans Feetwarmers - Sweetie Dear
TTITLE15=Sidney Bechet and His New Orleans Feetwarmers - Maple Leaf Rag
EXTD=
EXTT0=
EXTT1=
EXTT2=
EXTT3=
EXTT4=
EXTT5=
EXTT6=
EXTT7=
EXTT8=
EXTT9=
EXTT10=
EXTT11=
EXTT12=
EXTT13=
EXTT14=
EXTT15=
PLAYORDER=
